<svg xmlns="http://www.w3.org/2000/svg" xmlns:xlink="http://www.w3.org/1999/xlink" width="500" zoomAndPan="magnify" viewBox="0 0 375 374.999991" height="500" preserveAspectRatio="xMidYMid meet" version="1.0"><defs><g/><clipPath id="19014c6d42"><path d="M 0 55.789062 L 207 55.789062 L 207 294.289062 L 0 294.289062 Z M 0 55.789062 " clip-rule="nonzero"/></clipPath></defs><g clip-path="url(#19014c6d42)"><path fill="#000000" d="M 171.445312 294.265625 L 35.628906 294.265625 C 34.464844 294.265625 33.304688 294.207031 32.148438 294.089844 C 30.992188 293.976562 29.84375 293.804688 28.703125 293.578125 C 27.566406 293.351562 26.441406 293.066406 25.328125 292.730469 C 24.214844 292.394531 23.125 292.003906 22.050781 291.558594 C 20.976562 291.113281 19.925781 290.617188 18.902344 290.070312 C 17.878906 289.523438 16.882812 288.929688 15.917969 288.285156 C 14.949219 287.640625 14.019531 286.949219 13.121094 286.210938 C 12.222656 285.476562 11.359375 284.699219 10.539062 283.878906 C 9.71875 283.058594 8.9375 282.199219 8.199219 281.304688 C 7.464844 280.410156 6.769531 279.480469 6.125 278.515625 C 5.480469 277.550781 4.882812 276.558594 4.332031 275.535156 C 3.785156 274.511719 3.289062 273.464844 2.84375 272.394531 C 2.398438 271.324219 2.007812 270.234375 1.667969 269.125 C 1.328125 268.015625 1.046875 266.890625 0.820312 265.753906 C 0.589844 264.617188 0.417969 263.472656 0.304688 262.316406 C 0.1875 261.164062 0.132812 260.007812 0.128906 258.847656 L 0.128906 163.855469 C 0.125 161.617188 0.335938 159.398438 0.761719 157.203125 C 1.1875 155.007812 1.820312 152.871094 2.660156 150.796875 C 3.503906 148.722656 4.535156 146.746094 5.757812 144.871094 C 6.984375 143 8.378906 141.257812 9.9375 139.652344 L 82.59375 64.683594 C 83.269531 63.984375 83.980469 63.316406 84.722656 62.6875 C 85.46875 62.058594 86.238281 61.464844 87.042969 60.914062 C 87.84375 60.363281 88.675781 59.851562 89.527344 59.382812 C 90.382812 58.914062 91.257812 58.488281 92.15625 58.105469 C 93.054688 57.726562 93.96875 57.390625 94.898438 57.101562 C 95.828125 56.8125 96.773438 56.570312 97.730469 56.375 C 98.683594 56.179688 99.648438 56.035156 100.617188 55.9375 C 101.585938 55.839844 102.558594 55.789062 103.535156 55.789062 C 104.511719 55.789062 105.484375 55.839844 106.453125 55.9375 C 107.425781 56.035156 108.386719 56.179688 109.34375 56.375 C 110.296875 56.570312 111.242188 56.8125 112.171875 57.101562 C 113.101562 57.390625 114.019531 57.726562 114.914062 58.105469 C 115.8125 58.488281 116.6875 58.914062 117.542969 59.382812 C 118.398438 59.851562 119.226562 60.363281 120.027344 60.914062 C 120.832031 61.464844 121.605469 62.058594 122.347656 62.6875 C 123.089844 63.316406 123.800781 63.984375 124.476562 64.683594 L 203.902344 146.636719 C 204.402344 147.144531 204.84375 147.699219 205.230469 148.292969 C 205.617188 148.886719 205.945312 149.515625 206.207031 150.175781 C 206.472656 150.835938 206.667969 151.511719 206.796875 152.210938 C 206.925781 152.910156 206.984375 153.613281 206.976562 154.324219 C 206.964844 155.03125 206.882812 155.734375 206.734375 156.429688 C 206.585938 157.121094 206.371094 157.796875 206.085938 158.445312 C 205.804688 159.097656 205.460938 159.714844 205.058594 160.300781 C 204.652344 160.882812 204.195312 161.421875 203.683594 161.917969 C 203.171875 162.410156 202.617188 162.847656 202.019531 163.230469 C 201.417969 163.617188 200.789062 163.9375 200.128906 164.199219 C 199.464844 164.457031 198.785156 164.652344 198.082031 164.777344 C 197.382812 164.902344 196.675781 164.957031 195.964844 164.945312 C 195.253906 164.929688 194.550781 164.847656 193.855469 164.695312 C 193.160156 164.542969 192.488281 164.324219 191.835938 164.039062 C 191.183594 163.753906 190.566406 163.410156 189.984375 163.003906 C 189.402344 162.597656 188.863281 162.136719 188.371094 161.625 L 108.9375 79.703125 C 108.589844 79.332031 108.210938 79.003906 107.796875 78.714844 C 107.382812 78.421875 106.941406 78.175781 106.480469 77.976562 C 106.015625 77.777344 105.535156 77.625 105.039062 77.523438 C 104.542969 77.417969 104.042969 77.367188 103.535156 77.367188 C 103.027344 77.367188 102.527344 77.417969 102.03125 77.523438 C 101.535156 77.625 101.058594 77.777344 100.59375 77.976562 C 100.128906 78.175781 99.6875 78.421875 99.273438 78.714844 C 98.859375 79.003906 98.480469 79.332031 98.132812 79.703125 L 25.472656 154.640625 C 24.273438 155.878906 23.355469 157.296875 22.714844 158.898438 C 22.074219 160.496094 21.757812 162.15625 21.769531 163.878906 L 21.769531 258.847656 C 21.769531 259.757812 21.859375 260.65625 22.039062 261.550781 C 22.214844 262.441406 22.480469 263.308594 22.828125 264.148438 C 23.179688 264.988281 23.609375 265.785156 24.113281 266.542969 C 24.621094 267.300781 25.195312 268 25.839844 268.640625 C 26.484375 269.285156 27.1875 269.859375 27.945312 270.367188 C 28.703125 270.871094 29.503906 271.296875 30.34375 271.648438 C 31.1875 271.996094 32.054688 272.257812 32.949219 272.4375 C 33.84375 272.617188 34.746094 272.707031 35.65625 272.707031 L 171.472656 272.707031 C 172.183594 272.707031 172.886719 272.777344 173.582031 272.914062 C 174.277344 273.050781 174.953125 273.257812 175.609375 273.527344 C 176.265625 273.796875 176.886719 274.128906 177.476562 274.523438 C 178.066406 274.917969 178.613281 275.363281 179.113281 275.863281 C 179.617188 276.363281 180.0625 276.910156 180.457031 277.496094 C 180.851562 278.085938 181.183594 278.707031 181.457031 279.359375 C 181.726562 280.015625 181.933594 280.6875 182.070312 281.382812 C 182.207031 282.078125 182.277344 282.777344 182.277344 283.484375 C 182.277344 284.195312 182.207031 284.894531 182.070312 285.589844 C 181.933594 286.285156 181.726562 286.957031 181.457031 287.609375 C 181.183594 288.265625 180.851562 288.886719 180.457031 289.476562 C 180.0625 290.0625 179.617188 290.609375 179.113281 291.109375 C 178.613281 291.609375 178.066406 292.054688 177.476562 292.449219 C 176.886719 292.84375 176.265625 293.175781 175.609375 293.445312 C 174.953125 293.714844 174.277344 293.921875 173.582031 294.058594 C 172.886719 294.195312 172.183594 294.265625 171.472656 294.265625 Z M 171.445312 294.265625 " fill-opacity="1" fill-rule="nonzero"/></g><g fill="#000000" fill-opacity="1"><g transform="translate(209.078444, 290.673386)"><g><path d="M 2.808594 0 L 13.332031 0 L 13.332031 -1.417969 L 4.328125 -1.417969 L 4.328125 -8.183594 L 12.410156 -8.183594 L 12.410156 -9.574219 L 4.328125 -9.574219 L 4.328125 -15.992188 L 13.058594 -15.992188 L 13.058594 -17.410156 L 2.808594 -17.410156 Z M 2.808594 0 "/></g></g></g><g fill="#000000" fill-opacity="1"><g transform="translate(234.173305, 290.673386)"><g><path d="M 8.40625 0.324219 C 12.1875 0.324219 14.574219 -1.515625 14.574219 -4.425781 C 14.574219 -6.914062 12.882812 -8.457031 8.480469 -9.476562 C 4.824219 -10.296875 3.53125 -11.367188 3.53125 -13.105469 C 3.53125 -15.023438 5.171875 -16.289062 7.984375 -16.289062 C 10.894531 -16.289062 12.660156 -14.898438 12.785156 -12.433594 L 14.277344 -12.433594 C 14.152344 -15.792969 11.8125 -17.734375 7.984375 -17.734375 C 4.277344 -17.734375 2.015625 -15.890625 2.015625 -13.105469 C 2.015625 -10.496094 3.832031 -9.054688 8.109375 -8.058594 C 11.613281 -7.289062 13.03125 -6.21875 13.03125 -4.402344 C 13.03125 -2.386719 11.265625 -1.121094 8.40625 -1.121094 C 5.398438 -1.121094 3.382812 -2.613281 3.234375 -5.171875 L 1.742188 -5.171875 C 1.867188 -1.816406 4.425781 0.324219 8.40625 0.324219 Z M 8.40625 0.324219 "/></g></g></g><g fill="#000000" fill-opacity="1"><g transform="translate(260.461971, 290.673386)"><g><path d="M 6.9375 0 L 8.429688 0 L 8.429688 -15.96875 L 14.449219 -15.96875 L 14.449219 -17.410156 L 0.945312 -17.410156 L 0.945312 -15.96875 L 6.9375 -15.96875 Z M 6.9375 0 "/></g></g></g><g fill="#000000" fill-opacity="1"><g transform="translate(285.805563, 290.673386)"><g><path d="M 0.546875 0 L 2.164062 0 L 3.953125 -4.378906 L 13.007812 -4.378906 L 14.824219 0 L 16.414062 0 L 9.203125 -17.410156 L 7.757812 -17.410156 Z M 4.550781 -5.769531 L 8.480469 -15.34375 L 12.433594 -5.769531 Z M 4.550781 -5.769531 "/></g></g></g><g fill="#000000" fill-opacity="1"><g transform="translate(312.740892, 290.673386)"><g><path d="M 6.9375 0 L 8.429688 0 L 8.429688 -15.96875 L 14.449219 -15.96875 L 14.449219 -17.410156 L 0.945312 -17.410156 L 0.945312 -15.96875 L 6.9375 -15.96875 Z M 6.9375 0 "/></g></g></g><g fill="#000000" fill-opacity="1"><g transform="translate(338.08448, 290.673386)"><g><path d="M 2.808594 0 L 13.332031 0 L 13.332031 -1.417969 L 4.328125 -1.417969 L 4.328125 -8.183594 L 12.410156 -8.183594 L 12.410156 -9.574219 L 4.328125 -9.574219 L 4.328125 -15.992188 L 13.058594 -15.992188 L 13.058594 -17.410156 L 2.808594 -17.410156 Z M 2.808594 0 "/></g></g></g><g fill="#000000" fill-opacity="1"><g transform="translate(89.569261, 238.932071)"><g><path d="M 34.277344 0 L 44.820312 0 L 44.820312 -46.410156 L 34.277344 -46.410156 L 34.277344 -28.574219 L 16.109375 -28.574219 L 16.109375 -46.410156 L 5.570312 -46.410156 L 5.570312 0 L 16.109375 0 L 16.109375 -18.695312 L 34.277344 -18.695312 Z M 34.277344 0 "/></g></g></g><g fill="#000000" fill-opacity="1"><g transform="translate(146.581471, 238.932071)"><g><path d="M 27.582031 0.929688 C 42.101562 0.929688 52.378906 -9.015625 52.378906 -23.207031 C 52.378906 -37.394531 42.101562 -47.339844 27.582031 -47.339844 C 13.0625 -47.339844 2.851562 -37.394531 2.851562 -23.207031 C 2.851562 -9.015625 13.0625 0.929688 27.582031 0.929688 Z M 13.589844 -23.207031 C 13.589844 -31.558594 19.359375 -37.328125 27.582031 -37.328125 C 35.867188 -37.328125 41.570312 -31.558594 41.570312 -23.207031 C 41.570312 -14.851562 35.867188 -9.082031 27.582031 -9.082031 C 19.359375 -9.082031 13.589844 -14.851562 13.589844 -23.207031 Z M 13.589844 -23.207031 "/></g></g></g><g fill="#000000" fill-opacity="1"><g transform="translate(208.432816, 238.932071)"><g><path d="M 24.53125 0.929688 C 36.597656 0.929688 43.957031 -6.628906 43.957031 -19.09375 L 43.957031 -46.410156 L 33.414062 -46.410156 L 33.414062 -19.824219 C 33.414062 -12.730469 30.433594 -9.082031 24.53125 -9.082031 C 18.628906 -9.082031 15.648438 -12.730469 15.648438 -19.824219 L 15.648438 -46.410156 L 5.105469 -46.410156 L 5.105469 -19.09375 C 5.105469 -6.628906 12.464844 0.929688 24.53125 0.929688 Z M 24.53125 0.929688 "/></g></g></g><g fill="#000000" fill-opacity="1"><g transform="translate(264.119258, 238.932071)"><g><path d="M 21.746094 0.929688 C 32.753906 0.929688 39.515625 -4.308594 39.515625 -13.0625 C 39.515625 -20.421875 34.675781 -24.796875 23.140625 -27.515625 C 16.042969 -29.171875 13.589844 -30.960938 13.589844 -33.8125 C 13.589844 -36.863281 16.308594 -38.71875 20.753906 -38.71875 C 25.59375 -38.71875 28.507812 -36.199219 28.507812 -32.023438 L 38.652344 -32.023438 C 38.652344 -41.371094 31.625 -47.339844 20.621094 -47.339844 C 9.945312 -47.339844 3.316406 -42.101562 3.316406 -33.613281 C 3.316406 -26.054688 8.421875 -21.546875 19.292969 -19.226562 C 25.859375 -17.835938 28.839844 -15.914062 28.839844 -12.664062 C 28.839844 -9.546875 26.054688 -7.757812 21.679688 -7.757812 C 16.574219 -7.757812 13.261719 -10.34375 13.261719 -14.785156 L 2.917969 -14.785156 C 2.917969 -5.171875 10.078125 0.929688 21.746094 0.929688 Z M 21.746094 0.929688 "/></g></g></g><g fill="#000000" fill-opacity="1"><g transform="translate(313.243, 238.932071)"><g><path d="M 17.703125 0 L 28.246094 0 L 28.246094 -16.375 L 45.285156 -46.410156 L 33.285156 -46.410156 L 27.582031 -35.671875 L 23.007812 -27.25 L 18.367188 -35.671875 L 12.597656 -46.410156 L 0.597656 -46.410156 L 17.703125 -16.242188 Z M 17.703125 0 "/></g></g></g></svg>